<svg id="visual" viewBox="0 0 900 600" width="900" height="600" xmlns="http://www.w3.org/2000/svg" xmlns:xlink="http://www.w3.org/1999/xlink" version="1.1"><rect x="0" y="0" width="900" height="600" fill="#FF0066"></rect><g transform="translate(460.38861590624396 290.5516591816602)"><path d="M74.8 -110C105.6 -80.7 145 -70.3 174.6 -42C204.2 -13.6 223.8 32.8 207.5 62.6C191.1 92.4 138.8 105.7 98.2 131.8C57.6 158 28.8 197 -8.4 208.6C-45.7 220.2 -91.3 204.3 -118.2 173.8C-145.2 143.2 -153.4 97.9 -178.2 51C-202.9 4.1 -244.1 -44.3 -232 -73.5C-220 -102.8 -154.7 -112.9 -107.1 -136.8C-59.6 -160.6 -29.8 -198.3 -3.9 -193C22 -187.7 44.1 -139.3 74.8 -110" fill="#BB004B"></path></g></svg>